<svg width="48.000000" height="48.000000" viewBox="0 0 48 48" fill="none" xmlns="http://www.w3.org/2000/svg" xmlns:xlink="http://www.w3.org/1999/xlink">
	<desc>
			Created with Pixso.
	</desc>
	<defs>
		<clipPath id="clip2_18757">
			<rect id="icon" rx="-0.891427" width="46.217148" height="46.217148" transform="translate(0.891427 0.891427)" fill="white" fill-opacity="0"/>
		</clipPath>
	</defs>
	<rect id="icon" rx="-0.891427" width="46.217148" height="46.217148" transform="translate(0.891427 0.891427)" fill="#FFFFFF" fill-opacity="0"/>
	<g clip-path="url(#clip2_18757)">
		<path id="Vector" d="M26 0C20.49 0 16.05 4.37 16.05 9.79L16.05 11.75L8.19 11.75L8.1 12.61L4.12 46.89L4 48L48 48L47.87 46.89L43.89 12.61L43.8 11.75L35.94 11.75L35.94 9.79C35.94 4.37 31.5 0 26 0ZM26 1.95C30.43 1.95 33.95 5.42 33.95 9.79L33.95 11.75L18.04 11.75L18.04 9.79C18.04 5.42 21.56 1.95 26 1.95ZM9.99 13.71L16.05 13.71L16.05 15.94C15.46 16.28 15.06 16.9 15.06 17.63C15.06 18.71 15.95 19.59 17.05 19.59C18.15 19.59 19.03 18.71 19.03 17.63C19.03 16.9 18.63 16.28 18.04 15.94L18.04 13.71L33.95 13.71L33.95 15.94C33.36 16.28 32.96 16.9 32.96 17.63C32.96 18.71 33.84 19.59 34.94 19.59C36.04 19.59 36.93 18.71 36.93 17.63C36.93 16.9 36.53 16.28 35.94 15.94L35.94 13.71L42 13.71L45.76 46.04L6.23 46.04L9.99 13.71Z" fill="#424436" fill-opacity="1.000000" fill-rule="evenodd"/>
	</g>
</svg>
