<svg width="48.000000" height="48.000000" viewBox="0 0 48 48" fill="none" xmlns="http://www.w3.org/2000/svg" xmlns:xlink="http://www.w3.org/1999/xlink">
	<desc>
			Created with Pixso.
	</desc>
	<defs>
		<clipPath id="clip2_18759">
			<rect id="icon" rx="-0.891427" width="46.217148" height="46.217148" transform="translate(0.891427 0.891427)" fill="white" fill-opacity="0"/>
		</clipPath>
	</defs>
	<rect id="icon" rx="-0.891427" width="46.217148" height="46.217148" transform="translate(0.891427 0.891427)" fill="#FFFFFF" fill-opacity="0"/>
	<g clip-path="url(#clip2_18759)">
		<path id="Vector" d="M46 20.61C46 17.53 44.72 14.57 42.45 12.4C40.18 10.22 37.1 9 33.9 9C30.02 9 27.3 10.05 24 13.22C20.7 10.05 17.97 9 14.1 9C10.89 9 7.81 10.22 5.54 12.4C3.27 14.57 2 17.53 2 20.61C2 25.46 5.29 29.16 8.59 32.22L24 47L39.4 32.22C42.67 29.14 46 25.44 46 20.61Z" stroke="#424436" stroke-opacity="1.000000" stroke-width="2.200000" stroke-linejoin="round"/>
	</g>
</svg>
