<svg width="48.000000" height="48.000000" viewBox="0 0 48 48" fill="none" xmlns="http://www.w3.org/2000/svg" xmlns:xlink="http://www.w3.org/1999/xlink">
	<desc>
			Created with Pixso.
	</desc>
	<defs>
		<clipPath id="clip5281_30259">
			<rect id="basket=like" rx="-0.891427" width="46.217148" height="46.217148" transform="translate(0.891427 0.891427)" fill="white" fill-opacity="0"/>
		</clipPath>
	</defs>
	<rect id="basket=like" rx="-0.891427" width="46.217148" height="46.217148" transform="translate(0.891427 0.891427)" fill="#FFFFFF" fill-opacity="0"/>
	<g clip-path="url(#clip5281_30259)">
		<path id="Vector" d="M39.39 25.22C42.67 22.13 46 18.44 46 13.61C46 10.53 44.72 7.57 42.45 5.4C40.18 3.22 37.1 2 33.89 2C30.02 2 27.29 3.05 24 6.22C20.7 3.05 17.97 2 14.1 2C10.89 2 7.81 3.22 5.54 5.4C3.27 7.57 2 10.53 2 13.61C2 18.46 5.29 22.16 8.6 25.22L24 40L39.39 25.22Z" fill="#FFFFFF" fill-opacity="1.000000" fill-rule="nonzero"/>
		<path id="Vector" d="M46 13.61C46 10.53 44.72 7.57 42.45 5.4C40.18 3.22 37.1 2 33.89 2C30.02 2 27.29 3.05 24 6.22C20.7 3.05 17.97 2 14.1 2C10.89 2 7.81 3.22 5.54 5.4C3.27 7.57 2 10.53 2 13.61C2 18.46 5.29 22.16 8.6 25.22L24 40L39.39 25.22C42.67 22.13 46 18.44 46 13.61Z" stroke="#424436" stroke-opacity="1.000000" stroke-width="2.200000" stroke-linejoin="round"/>
	</g>
</svg>
