<svg width="70.000000" height="72.500000" viewBox="0 0 70 72.5" fill="none" xmlns="http://www.w3.org/2000/svg" xmlns:xlink="http://www.w3.org/1999/xlink">
	<desc>
			Created with Pixso.
	</desc>
	<defs>
		<clipPath id="clip2_18780">
			<rect id="ground" rx="-0.497686" width="34.837959" height="15.671293" transform="translate(17.997686 56.331028)" fill="white" fill-opacity="0"/>
		</clipPath>
	</defs>
	<circle id="bg" cx="35.000000" cy="35.000000" r="35.000000" fill="#92A234" fill-opacity="1.000000"/>
	<g clip-path="url(#clip2_18780)">
		<mask id="mask2_18778" mask-type="alpha" maskUnits="userSpaceOnUse" x="19.521240" y="55.889008" width="32.457878" height="24.884066">
			<path id="Union" d="M36.7592 56.6527C37.7612 56.1635 38.8872 55.889 40.0774 55.889C43.1064 55.889 45.7201 57.6672 46.9315 60.2367C48.2477 60.3829 49.3263 61.3162 49.6863 62.5551C51.0818 63.6441 51.9791 65.3418 51.9791 67.2491C51.9791 70.5355 49.3149 73.1997 46.0286 73.1997C45.767 73.1997 45.5094 73.1828 45.2568 73.1501C44.2913 77.5113 40.4014 80.7731 35.7498 80.7731C30.6973 80.7731 26.5436 76.925 26.0594 71.9998C25.6954 72.0771 25.3179 72.1177 24.9309 72.1177C21.9432 72.1177 19.5212 69.6957 19.5212 66.7081C19.5212 63.9719 21.5526 61.7102 24.1896 61.3488C24.7867 60.0423 26.1051 59.1345 27.6355 59.1345C28.0117 59.1345 28.3752 59.1894 28.7184 59.2916C29.4957 58.5963 30.4977 58.1469 31.6021 58.066C32.0438 56.7985 33.2496 55.8891 34.6677 55.8891C35.4645 55.8891 36.1943 56.1762 36.7592 56.6527Z" clip-rule="evenodd" fill="#FFFFFF" fill-opacity="1.000000" fill-rule="evenodd"/>
		</mask>
		<g mask="url(#mask2_18778)">
			<circle id="Ellipse 11" cx="35.000000" cy="35.000000" r="35.000000" fill="#FFFFF1" fill-opacity="1.000000"/>
		</g>
	</g>
	<path id="plant" d="M39.48 36.24C38.69 37 37.86 38.02 37.1 39.39C36.35 36.69 35.41 34.72 34.45 33.27C38.83 18.68 17.5 18.16 17.5 18.16C17.5 18.16 18.12 36.39 29.26 35.97C29.24 34.75 29.05 33.52 28.78 32.36C28.61 31.61 28.4 30.89 28.19 30.22C27.48 28.02 26.67 26.46 26.67 26.46C27.49 27.55 28.21 28.58 28.84 29.56C31.03 32.91 32.22 35.52 32.78 36.9C34.14 39.84 35.37 44.66 35.37 52.55C35.37 53.44 36.1 54.16 36.99 54.16C37.89 54.16 38.61 53.44 38.61 52.55C38.61 49.99 38.49 47.72 38.27 45.69C38.78 43.21 39.56 41.46 40.37 40.21C40.9 39.2 41.88 37.48 43.19 35.71C44.36 34.15 45.81 32.55 47.44 31.41C47.44 31.41 44.09 35.11 43.88 38.73C53.14 39.21 53.5 24.69 53.5 24.69C53.5 24.69 36.55 25.26 39.48 36.24Z" fill="#FFFFF1" fill-opacity="1.000000" fill-rule="evenodd"/>
</svg>
