<svg width="20.000000" height="20.000000" viewBox="0 0 20 20" fill="none" xmlns="http://www.w3.org/2000/svg" xmlns:xlink="http://www.w3.org/1999/xlink">
	<desc>
			Created with Pixso.
	</desc>
	<defs/>
	<path id="Vector" d="M9.99 16.76C9.64 16.76 9.35 17.04 9.35 17.4L9.35 19.35C9.35 19.71 9.64 20 9.99 20C10.35 20 10.64 19.71 10.64 19.35L10.64 17.4C10.64 17.04 10.35 16.76 9.99 16.76Z" fill="#8B8B8B" fill-opacity="1.000000" fill-rule="evenodd"/>
	<path id="Vector" d="M9.99 3.23C10.35 3.23 10.64 2.94 10.64 2.59L10.64 0.64C10.64 0.28 10.35 0 9.99 0C9.64 0 9.35 0.28 9.35 0.64L9.35 2.59C9.35 2.94 9.64 3.23 9.99 3.23Z" fill="#8B8B8B" fill-opacity="1.000000" fill-rule="evenodd"/>
	<path id="Vector" d="M4.3 14.78L2.92 16.15C2.67 16.4 2.67 16.81 2.92 17.07C3.05 17.19 3.21 17.25 3.38 17.25C3.55 17.25 3.71 17.19 3.84 17.07L5.21 15.69C5.47 15.44 5.47 15.03 5.21 14.78C4.96 14.52 4.55 14.52 4.3 14.78Z" fill="#8B8B8B" fill-opacity="1.000000" fill-rule="evenodd"/>
	<path id="Vector" d="M15.23 5.4C15.4 5.4 15.56 5.34 15.69 5.21L17.07 3.84C17.32 3.58 17.32 3.18 17.07 2.92C16.81 2.67 16.41 2.67 16.15 2.92L14.77 4.3C14.52 4.55 14.52 4.96 14.77 5.21C14.9 5.34 15.07 5.4 15.23 5.4Z" fill="#8B8B8B" fill-opacity="1.000000" fill-rule="evenodd"/>
	<path id="Vector" d="M3.23 9.99C3.23 9.64 2.95 9.35 2.59 9.35L0.64 9.35C0.28 9.35 0 9.64 0 9.99C0 10.35 0.28 10.64 0.64 10.64L2.59 10.64C2.95 10.64 3.23 10.35 3.23 9.99Z" fill="#8B8B8B" fill-opacity="1.000000" fill-rule="evenodd"/>
	<path id="Vector" d="M19.35 9.35L17.4 9.35C17.04 9.35 16.76 9.64 16.76 9.99C16.76 10.35 17.04 10.64 17.4 10.64L19.35 10.64C19.71 10.64 20 10.35 20 9.99C20 9.64 19.71 9.35 19.35 9.35Z" fill="#8B8B8B" fill-opacity="1.000000" fill-rule="evenodd"/>
	<path id="Vector" d="M4.3 5.21C4.43 5.34 4.59 5.4 4.76 5.4C4.92 5.4 5.09 5.34 5.21 5.21C5.47 4.96 5.47 4.55 5.21 4.3L3.84 2.92C3.58 2.67 3.18 2.67 2.92 2.92C2.67 3.18 2.67 3.58 2.92 3.84L4.3 5.21Z" fill="#8B8B8B" fill-opacity="1.000000" fill-rule="evenodd"/>
	<path id="Vector" d="M15.69 14.78C15.44 14.52 15.03 14.52 14.78 14.78C14.52 15.03 14.52 15.44 14.78 15.69L16.15 17.07C16.28 17.19 16.44 17.25 16.61 17.25C16.77 17.25 16.94 17.19 17.07 17.07C17.32 16.81 17.32 16.4 17.07 16.15L15.69 14.78Z" fill="#8B8B8B" fill-opacity="1.000000" fill-rule="evenodd"/>
	<path id="Vector" d="M9.99 4.18C6.79 4.18 4.18 6.79 4.18 9.99C4.18 13.2 6.79 15.8 9.99 15.8C13.2 15.8 15.8 13.2 15.8 9.99C15.8 6.79 13.2 4.18 9.99 4.18ZM9.99 14.51C7.5 14.51 5.48 12.49 5.48 9.99C5.48 7.5 7.5 5.47 9.99 5.47C12.49 5.47 14.51 7.5 14.51 9.99C14.51 12.49 12.49 14.51 9.99 14.51Z" fill="#8B8B8B" fill-opacity="1.000000" fill-rule="evenodd"/>
</svg>
